<svg width="68" height="68" viewBox="0 0 68 68" fill="none" xmlns="http://www.w3.org/2000/svg">
<rect width="68" height="68" rx="12" fill="#AB0ABD"/>
<path d="M34 12.186C35.792 12.186 37.528 12.422 39.18 12.864L34.928 17.114C34.6054 17.4379 34.3209 17.7976 34.08 18.186H34C31.2311 18.186 28.5243 19.0071 26.222 20.5455C23.9197 22.0838 22.1253 24.2703 21.0657 26.8285C20.0061 29.3866 19.7288 32.2016 20.269 34.9173C20.8092 37.633 22.1426 40.1276 24.1005 42.0855C26.0584 44.0435 28.553 45.3768 31.2687 45.917C33.9845 46.4572 36.7994 46.18 39.3576 45.1203C41.9157 44.0607 44.1022 42.2663 45.6406 39.964C47.1789 37.6617 48 34.955 48 32.186V32.106C48.3867 31.866 48.7433 31.5827 49.07 31.256L53.322 27.006C53.764 28.658 54 30.394 54 32.186C54 43.232 45.046 52.186 34 52.186C22.954 52.186 14 43.232 14 32.186C14 21.14 22.954 12.186 34 12.186ZM33.172 22.22C33.172 23.922 33.088 25.648 33.18 27.348L32.1 28.428C31.7285 28.7995 31.4338 29.2406 31.2327 29.726C31.0317 30.2114 30.9282 30.7316 30.9282 31.257C30.9282 31.7824 31.0317 32.3027 31.2327 32.7881C31.4338 33.2735 31.7285 33.7145 32.1 34.086C32.4715 34.4575 32.9126 34.7522 33.398 34.9533C33.8834 35.1544 34.4036 35.2578 34.929 35.2578C35.4544 35.2578 35.9746 35.1544 36.46 34.9533C36.9454 34.7522 37.3865 34.4575 37.758 34.086L38.838 33.006C40.538 33.098 42.262 33.014 43.966 33.014C43.808 34.9147 43.1098 36.7306 41.9537 38.2475C40.7975 39.7643 39.2317 40.919 37.4409 41.5752C35.6501 42.2314 33.709 42.3617 31.8466 41.951C29.9841 41.5402 28.2779 40.6054 26.9293 39.2567C25.5807 37.9081 24.6459 36.202 24.2351 34.3395C23.8243 32.477 23.9547 30.5359 24.6109 28.7451C25.2671 26.9543 26.4217 25.3885 27.9386 24.2324C29.4555 23.0763 31.2713 22.378 33.172 22.22ZM47.008 12.44C47.3731 12.5914 47.6851 12.8475 47.9047 13.1761C48.1243 13.5046 48.2417 13.8908 48.242 14.286V17.946H51.9C52.2955 17.9461 52.6821 18.0635 53.0109 18.2832C53.3397 18.503 53.596 18.8153 53.7474 19.1807C53.8987 19.5461 53.9383 19.9482 53.8612 20.3361C53.784 20.724 53.5936 21.0803 53.314 21.36L46.24 28.426C45.865 28.8011 45.3564 29.0119 44.826 29.012H40L36.344 32.67C35.9687 33.0453 35.4597 33.2561 34.929 33.2561C34.3983 33.2561 33.8893 33.0453 33.514 32.67C33.1387 32.2948 32.9279 31.7858 32.9279 31.255C32.9279 30.7243 33.1387 30.2153 33.514 29.84L37.172 26.186V21.358C37.1718 21.0951 37.2234 20.8347 37.324 20.5917C37.4246 20.3487 37.572 20.1279 37.758 19.942L44.828 12.872C45.1077 12.5922 45.4641 12.4016 45.8522 12.3243C46.2402 12.247 46.6425 12.2866 47.008 12.438" fill="white"/>
</svg>
