<svg width="22" height="37" viewBox="0 0 22 37" fill="none" xmlns="http://www.w3.org/2000/svg">
<path d="M7.2575 12.5001V25.986C7.27308 26.9722 7.67576 27.9126 8.37865 28.6045C9.08153 29.2964 10.0283 29.6842 11.0145 29.6842C12.0008 29.6842 12.9475 29.2964 13.6504 28.6045C14.3533 27.9126 14.756 26.9722 14.7716 25.986L14.7838 8.30944C14.794 7.46656 14.6368 6.63004 14.3213 5.84836C14.0058 5.06668 13.5383 4.3554 12.9459 3.75574C12.3535 3.15609 11.6479 2.67999 10.8701 2.35505C10.0923 2.03011 9.25779 1.86279 8.41485 1.86279C7.5719 1.86279 6.73735 2.03011 5.95955 2.35505C5.18176 2.67999 4.4762 3.15609 3.88378 3.75574C3.29136 4.3554 2.82386 5.06668 2.50838 5.84836C2.1929 6.63004 2.03571 7.46656 2.04594 8.30944V26.1051C2.02877 27.2917 2.24766 28.4699 2.68989 29.5712C3.13212 30.6725 3.78886 31.6749 4.62194 32.5201C5.45502 33.3654 6.44781 34.0365 7.54259 34.4947C8.63737 34.9528 9.8123 35.1887 10.9991 35.1887C12.1858 35.1887 13.3608 34.9528 14.4555 34.4947C15.5503 34.0365 16.5431 33.3654 17.3762 32.5201C18.2093 31.6749 18.866 30.6725 19.3082 29.5712C19.7505 28.4699 19.9694 27.2917 19.9522 26.1051V9.47569" stroke="black" stroke-width="3" stroke-miterlimit="10" stroke-linecap="round"/>
</svg>
