<svg width="48" height="48" viewBox="0 0 48 48" fill="none" xmlns="http://www.w3.org/2000/svg">
<rect width="48" height="48" rx="12" fill="#AB0ABD"/>
<path d="M24 7.63965C32.2845 7.63965 39 14.3551 39 22.6396C39 30.9241 32.2845 37.6396 24 37.6396C15.7155 37.6396 9 30.9241 9 22.6396C9 14.3551 15.7155 7.63965 24 7.63965ZM24 13.6396C23.6022 13.6396 23.2206 13.7977 22.9393 14.079C22.658 14.3603 22.5 14.7418 22.5 15.1396V22.6396C22.5001 23.0374 22.6582 23.4189 22.9395 23.7001L27.4395 28.2001C27.7224 28.4734 28.1013 28.6246 28.4946 28.6212C28.8879 28.6177 29.2641 28.46 29.5422 28.1819C29.8203 27.9038 29.9781 27.5275 29.9815 27.1343C29.9849 26.741 29.8337 26.3621 29.5605 26.0791L25.5 22.0186V15.1396C25.5 14.7418 25.342 14.3603 25.0607 14.079C24.7794 13.7977 24.3978 13.6396 24 13.6396Z" fill="white"/>
</svg>
