<svg width="48" height="48" viewBox="0 0 48 48" fill="none" xmlns="http://www.w3.org/2000/svg">
<rect width="48" height="48" rx="12" fill="#AB0ABD"/>
<path d="M24 8C25.3144 8 26.5877 8.1731 27.7994 8.49729L24.6807 11.6146C24.4441 11.8521 24.2354 12.1159 24.0587 12.4008H24C21.9691 12.4008 19.9837 13.0031 18.2951 14.1314C16.6064 15.2597 15.2903 16.8635 14.5131 18.7398C13.7358 20.6162 13.5325 22.6808 13.9287 24.6728C14.3249 26.6647 15.3029 28.4944 16.739 29.9305C18.1751 31.3665 20.0048 32.3445 21.9967 32.7408C23.9886 33.137 26.0533 32.9336 27.9296 32.1564C29.806 31.3792 31.4097 30.063 32.5381 28.3744C33.6664 26.6857 34.2686 24.7004 34.2686 22.6694V22.6108C34.5522 22.4347 34.8138 22.2269 35.0534 21.9873L38.1722 18.8701C38.4964 20.0818 38.6695 21.3551 38.6695 22.6694C38.6695 30.7714 32.1019 37.3389 24 37.3389C15.8981 37.3389 9.33057 30.7714 9.33057 22.6694C9.33057 14.5675 15.8981 8 24 8ZM23.3927 15.3597C23.3927 16.608 23.3311 17.874 23.3986 19.1209L22.6064 19.9131C22.3339 20.1856 22.1178 20.509 21.9703 20.8651C21.8228 21.2211 21.7469 21.6027 21.7469 21.9881C21.7469 22.3734 21.8228 22.755 21.9703 23.111C22.1178 23.4671 22.3339 23.7906 22.6064 24.063C22.8789 24.3355 23.2024 24.5517 23.5584 24.6992C23.9145 24.8466 24.296 24.9225 24.6814 24.9225C25.0668 24.9225 25.4484 24.8466 25.8044 24.6992C26.1604 24.5517 26.4839 24.3355 26.7564 24.063L27.5486 23.2709C28.7955 23.3384 30.06 23.2768 31.3098 23.2768C31.1939 24.6709 30.6818 26.0027 29.8338 27.1153C28.9858 28.2279 27.8373 29.0748 26.5238 29.5561C25.2103 30.0374 23.7866 30.1331 22.4205 29.8318C21.0544 29.5305 19.803 28.8448 18.8139 27.8556C17.8247 26.8664 17.139 25.615 16.8377 24.2489C16.5364 22.8829 16.632 21.4591 17.1134 20.1456C17.5947 18.8321 18.4415 17.6837 19.5541 16.8357C20.6667 15.9877 21.9986 15.4755 23.3927 15.3597ZM33.541 8.1863C33.8088 8.29732 34.0376 8.48517 34.1987 8.72615C34.3598 8.96713 34.4459 9.25043 34.4461 9.54029V12.2248H37.1292C37.4193 12.2249 37.7028 12.3109 37.944 12.4721C38.1852 12.6333 38.3731 12.8624 38.4842 13.1304C38.5952 13.3984 38.6242 13.6933 38.5676 13.9778C38.5111 14.2624 38.3714 14.5237 38.1663 14.7289L32.9777 19.9116C32.7027 20.1867 32.3296 20.3413 31.9406 20.3414H28.4008L25.7193 23.0244C25.444 23.2997 25.0707 23.4543 24.6814 23.4543C24.2921 23.4543 23.9188 23.2997 23.6435 23.0244C23.3683 22.7492 23.2136 22.3759 23.2136 21.9866C23.2136 21.5973 23.3683 21.224 23.6435 20.9487L26.3266 18.2686V14.7274C26.3264 14.5345 26.3643 14.3435 26.4381 14.1653C26.5118 13.9871 26.62 13.8252 26.7564 13.6888L31.9421 8.50316C32.1472 8.29789 32.4086 8.15808 32.6932 8.10141C32.9779 8.04475 33.2729 8.07378 33.541 8.18483" fill="white"/>
</svg>
