<svg width="48" height="48" viewBox="0 0 48 48" fill="none" xmlns="http://www.w3.org/2000/svg">
<rect width="48" height="48" rx="12" fill="#AB0ABD"/>
<path fill-rule="evenodd" clip-rule="evenodd" d="M32.5702 10.4794C32.5719 10.2182 32.477 9.96569 32.3037 9.77029C32.1305 9.5749 31.8911 9.45043 31.6317 9.42084C26.5588 8.85972 21.4396 8.85972 16.3668 9.42084C16.1077 9.45039 15.8686 9.57455 15.6954 9.7695C15.5222 9.96444 15.4271 10.2165 15.4282 10.4772V11.6922C13.6912 11.9165 11.9748 12.2065 10.2792 12.5622C9.92565 12.6367 9.60753 12.8283 9.3762 13.1059C9.14488 13.3835 9.01386 13.7309 9.00429 14.0921L9 14.3578C8.99974 16.8601 9.97218 19.2645 11.7119 21.063C13.4516 22.8615 15.8223 23.9133 18.3231 23.9961C19.3363 24.8918 20.5471 25.5351 21.8565 25.8732V28.286H19.7137C19.1454 28.286 18.6004 28.5118 18.1986 28.9136C17.7967 29.3155 17.571 29.8605 17.571 30.4288V34.7144H16.1418C14.5647 34.7144 13.2855 35.9937 13.2855 37.5708C13.2855 38.3593 13.924 39 14.7147 39H33.2837C33.6628 39 34.0263 38.8494 34.2943 38.5814C34.5624 38.3133 34.713 37.9498 34.713 37.5708C34.713 35.9937 33.4337 34.7144 31.8567 34.7144H30.4275V30.4288C30.4275 29.8605 30.2017 29.3155 29.7999 28.9136C29.398 28.5118 28.853 28.286 28.2847 28.286H26.142V25.8732C27.4514 25.5351 28.6621 24.8918 29.6754 23.9961C32.2224 23.9122 34.6327 22.8232 36.3793 20.9674C38.1259 19.1115 39.0668 16.6397 38.9963 14.0921C38.9866 13.7306 38.8553 13.3829 38.6236 13.1053C38.3918 12.8277 38.0732 12.6363 37.7192 12.5622C36.015 12.2048 34.2973 11.9146 32.5702 11.6922V10.4794ZM15.4282 14.9321C14.3783 15.075 13.3369 15.2428 12.3041 15.4357C12.4752 16.4412 12.8831 17.3917 13.4942 18.2084C14.1052 19.0251 14.9018 19.6847 15.8182 20.1327C15.5593 19.3038 15.4278 18.4404 15.4282 17.572V14.9321ZM32.5702 14.9321C33.6202 15.075 34.6615 15.2428 35.6943 15.4357C35.5232 16.4412 35.1153 17.3917 34.5043 18.2084C33.8932 19.0251 33.0966 19.6847 32.1802 20.1327C32.4331 19.3248 32.5702 18.4634 32.5702 17.572V14.9321Z" fill="white"/>
</svg>
