<svg width="86" height="24" viewBox="0 0 86 24" fill="none" xmlns="http://www.w3.org/2000/svg">
<path d="M11.2779 9.69265L17.1504 3.62737C16.1091 2.80221 14.868 2.26743 13.5531 2.07739C12.2382 1.88734 10.8965 2.04881 9.66423 2.54538L11.2779 9.69265Z" fill="url(#paint0_linear_100_24)"/>
<path d="M19.452 12.3423C19.9725 11.0543 20.1262 9.64734 19.896 8.27737C19.6658 6.90739 19.0607 5.62794 18.1479 4.58086L12.2746 10.6156L19.452 12.3423Z" fill="url(#paint1_linear_100_24)"/>
<path d="M11.5008 12.0001L10.7909 18.0888L14.3057 16.8151L15.1214 16.5204C16.0673 16.1835 16.9331 15.6544 17.6644 14.9663C17.7091 14.9237 17.7531 14.8804 17.7971 14.8371C18.1663 14.4679 18.4962 14.0615 18.7818 13.6245L11.5008 12.0001Z" fill="url(#paint2_linear_100_24)"/>
<path d="M10.0881 10.4644L8.41405 3.19287C7.96181 3.48351 7.54198 3.82172 7.16174 4.20174C6.54836 4.81516 6.27078 5.16659 5.70639 6.24717L5.12567 7.6877L3.87407 11.1815L10.0881 10.4644Z" fill="url(#paint3_linear_100_24)"/>
<path d="M10.1285 11.895L3.33665 12.6781L0 22L9.25531 18.6461L10.1285 11.895Z" fill="url(#paint4_linear_100_24)"/>
<path d="M28.6406 13.4814C27.9492 13.4814 27.3193 13.3115 26.751 12.9717C26.1826 12.6318 25.7285 12.1777 25.3887 11.6094C25.0488 11.041 24.8789 10.4082 24.8789 9.71094C24.8789 9.01953 25.0488 8.38965 25.3887 7.82129C25.7285 7.25293 26.1826 6.79883 26.751 6.45898C27.3193 6.11914 27.9492 5.94922 28.6406 5.94922H35.9619V8.46289H28.6406C28.2949 8.46289 27.999 8.58594 27.7529 8.83203C27.5127 9.07227 27.3926 9.36523 27.3926 9.71094C27.3926 10.0625 27.5127 10.3613 27.7529 10.6074C27.999 10.8477 28.2949 10.9678 28.6406 10.9678H32.6221C33.3135 10.9678 33.9434 11.1377 34.5117 11.4775C35.0801 11.8174 35.5342 12.2744 35.874 12.8486C36.2139 13.417 36.3838 14.0469 36.3838 14.7383C36.3838 15.4297 36.2139 16.0596 35.874 16.6279C35.5342 17.1963 35.0801 17.6504 34.5117 17.9902C33.9434 18.3301 33.3135 18.5 32.6221 18.5H25.0898V15.9863H32.6221C32.9678 15.9863 33.2607 15.8662 33.501 15.626C33.7471 15.3799 33.8701 15.084 33.8701 14.7383C33.8701 14.3926 33.7471 14.0967 33.501 13.8506C33.2607 13.6045 32.9678 13.4814 32.6221 13.4814H28.6406ZM40.6641 5.94922V18.5H38.1504V5.94922H40.6641ZM53.7158 10.5547C53.7158 11.334 53.502 12.0342 53.0742 12.6553C52.6465 13.2764 52.0869 13.7334 51.3955 14.0264L53.5664 18.5H50.7803L48.75 14.3164H44.9355V18.5H42.4219V13.0596C42.4219 12.7139 42.5449 12.418 42.791 12.1719C43.0371 11.9258 43.333 11.8027 43.6787 11.8027H49.9541C50.2998 11.8027 50.5957 11.6826 50.8418 11.4424C51.0879 11.1963 51.2109 10.9004 51.2109 10.5547V9.71094C51.2109 9.36523 51.0879 9.07227 50.8418 8.83203C50.5957 8.58594 50.2998 8.46289 49.9541 8.46289H42.4219V5.94922H49.9541C50.6455 5.94922 51.2754 6.11914 51.8438 6.45898C52.4121 6.79883 52.8662 7.25293 53.2061 7.82129C53.5459 8.38965 53.7158 9.01953 53.7158 9.71094V10.5547ZM57.9961 5.94922V18.5H55.4824V5.94922H57.9961ZM64.7725 18.5C63.4307 18.5 62.2471 18.0107 61.2217 17.0322C60.2432 16.0068 59.7539 14.8232 59.7539 13.4814V5.94922H62.2676V13.4814C62.2676 14.1729 62.5107 14.7646 62.9971 15.2568C63.4893 15.7432 64.0811 15.9863 64.7725 15.9863H66.5127C67.2041 15.9863 67.793 15.7432 68.2793 15.2568C68.7715 14.7646 69.0176 14.1729 69.0176 13.4814V5.94922H71.5312V13.4814C71.5312 14.8232 71.042 16.0068 70.0635 17.0322C69.0381 18.0107 67.8545 18.5 66.5127 18.5H64.7725ZM77.0508 13.4814C76.3594 13.4814 75.7295 13.3115 75.1611 12.9717C74.5928 12.6318 74.1387 12.1777 73.7988 11.6094C73.459 11.041 73.2891 10.4082 73.2891 9.71094C73.2891 9.01953 73.459 8.38965 73.7988 7.82129C74.1387 7.25293 74.5928 6.79883 75.1611 6.45898C75.7295 6.11914 76.3594 5.94922 77.0508 5.94922H84.3721V8.46289H77.0508C76.7051 8.46289 76.4092 8.58594 76.1631 8.83203C75.9229 9.07227 75.8027 9.36523 75.8027 9.71094C75.8027 10.0625 75.9229 10.3613 76.1631 10.6074C76.4092 10.8477 76.7051 10.9678 77.0508 10.9678H81.0322C81.7236 10.9678 82.3535 11.1377 82.9219 11.4775C83.4902 11.8174 83.9443 12.2744 84.2842 12.8486C84.624 13.417 84.7939 14.0469 84.7939 14.7383C84.7939 15.4297 84.624 16.0596 84.2842 16.6279C83.9443 17.1963 83.4902 17.6504 82.9219 17.9902C82.3535 18.3301 81.7236 18.5 81.0322 18.5H73.5V15.9863H81.0322C81.3779 15.9863 81.6709 15.8662 81.9111 15.626C82.1572 15.3799 82.2803 15.084 82.2803 14.7383C82.2803 14.3926 82.1572 14.0967 81.9111 13.8506C81.6709 13.6045 81.3779 13.4814 81.0322 13.4814H77.0508Z" fill="url(#paint5_linear_100_24)"/>
<defs>
<linearGradient id="paint0_linear_100_24" x1="14.6919" y1="7.21327" x2="-0.380096" y2="22.3782" gradientUnits="userSpaceOnUse">
<stop stop-color="#AB0ABD"/>
<stop offset="1" stop-color="#00E0FF"/>
</linearGradient>
<linearGradient id="paint1_linear_100_24" x1="14.6919" y1="7.21327" x2="-0.380096" y2="22.3782" gradientUnits="userSpaceOnUse">
<stop stop-color="#AB0ABD"/>
<stop offset="1" stop-color="#00E0FF"/>
</linearGradient>
<linearGradient id="paint2_linear_100_24" x1="14.6919" y1="7.21327" x2="-0.380096" y2="22.3782" gradientUnits="userSpaceOnUse">
<stop stop-color="#AB0ABD"/>
<stop offset="1" stop-color="#00E0FF"/>
</linearGradient>
<linearGradient id="paint3_linear_100_24" x1="14.6919" y1="7.21327" x2="-0.380096" y2="22.3782" gradientUnits="userSpaceOnUse">
<stop stop-color="#AB0ABD"/>
<stop offset="1" stop-color="#00E0FF"/>
</linearGradient>
<linearGradient id="paint4_linear_100_24" x1="14.6919" y1="7.21327" x2="-0.380096" y2="22.3782" gradientUnits="userSpaceOnUse">
<stop stop-color="#AB0ABD"/>
<stop offset="1" stop-color="#00E0FF"/>
</linearGradient>
<linearGradient id="paint5_linear_100_24" x1="73.9055" y1="0.500006" x2="32.4684" y2="23.9539" gradientUnits="userSpaceOnUse">
<stop stop-color="#AB0ABD"/>
<stop offset="1" stop-color="#00E0FF"/>
</linearGradient>
</defs>
</svg>
