<svg width="28" height="28" viewBox="0 0 28 28" fill="none" xmlns="http://www.w3.org/2000/svg">
<path d="M3.33328 12.6665C3.67312 12.6669 3.99999 12.797 4.24711 13.0303C4.49422 13.2636 4.64293 13.5824 4.66284 13.9217C4.68276 14.261 4.57238 14.595 4.35426 14.8556C4.13614 15.1162 3.82674 15.2837 3.48928 15.3238L3.33328 15.3332H1.99995C1.66011 15.3328 1.33324 15.2027 1.08612 14.9694C0.839008 14.7361 0.6903 14.4172 0.670384 14.078C0.650468 13.7387 0.760846 13.4047 0.978967 13.1441C1.19709 12.8835 1.50649 12.716 1.84395 12.6758L1.99995 12.6665H3.33328ZM13.9999 0.666504C14.3265 0.666547 14.6417 0.786445 14.8858 1.00346C15.1298 1.22047 15.2857 1.5195 15.3239 1.84384L15.3333 1.99984V3.33317C15.3329 3.67301 15.2028 3.99988 14.9695 4.24699C14.7362 4.49411 14.4173 4.64282 14.0781 4.66273C13.7388 4.68265 13.4048 4.57227 13.1442 4.35415C12.8836 4.13603 12.7161 3.82663 12.6759 3.48917L12.6666 3.33317V1.99984C12.6666 1.64622 12.8071 1.30708 13.0571 1.05703C13.3072 0.80698 13.6463 0.666504 13.9999 0.666504ZM25.9999 12.6665C26.3398 12.6669 26.6667 12.797 26.9138 13.0303C27.1609 13.2636 27.3096 13.5824 27.3295 13.9217C27.3494 14.261 27.239 14.595 27.0209 14.8556C26.8028 15.1162 26.4934 15.2837 26.1559 15.3238L25.9999 15.3332H24.6666C24.3268 15.3328 23.9999 15.2027 23.7528 14.9694C23.5057 14.7361 23.357 14.4172 23.3371 14.078C23.3171 13.7387 23.4275 13.4047 23.6456 13.1441C23.8638 12.8835 24.1732 12.716 24.5106 12.6758L24.6666 12.6665H25.9999ZM4.52395 4.52384C4.75354 4.29427 5.059 4.15636 5.38304 4.13598C5.70707 4.11561 6.02741 4.21417 6.28395 4.41317L6.40928 4.52384L7.34261 5.45717C7.58174 5.69711 7.72058 6.01908 7.73092 6.35768C7.74126 6.69628 7.62233 7.02612 7.39828 7.28021C7.17424 7.5343 6.86188 7.69358 6.52465 7.7257C6.18742 7.75783 5.8506 7.66039 5.58261 7.45317L5.45728 7.3425L4.52395 6.40917C4.27399 6.15913 4.13356 5.82006 4.13356 5.4665C4.13356 5.11295 4.27399 4.77387 4.52395 4.52384ZM21.5906 4.52384C21.8306 4.28471 22.1525 4.14587 22.4911 4.13553C22.8297 4.12519 23.1596 4.24412 23.4137 4.46817C23.6677 4.69221 23.827 5.00457 23.8591 5.3418C23.8913 5.67903 23.7938 6.01585 23.5866 6.28384L23.4759 6.40917L22.5426 7.3425C22.3027 7.58163 21.9807 7.72047 21.6421 7.73081C21.3035 7.74115 20.9737 7.62222 20.7196 7.39817C20.4655 7.17413 20.3062 6.86177 20.2741 6.52454C20.242 6.18731 20.3394 5.85049 20.5466 5.5825L20.6573 5.45717L21.5906 4.52384ZM16.6666 21.9998C17.0202 21.9998 17.3594 22.1403 17.6094 22.3904C17.8595 22.6404 17.9999 22.9795 17.9999 23.3332C17.9999 24.394 17.5785 25.4115 16.8284 26.1616C16.0782 26.9117 15.0608 27.3332 13.9999 27.3332C12.9391 27.3332 11.9217 26.9117 11.1715 26.1616C10.4214 25.4115 9.99995 24.394 9.99995 23.3332C9.99999 23.0066 10.1199 22.6914 10.3369 22.4473C10.5539 22.2033 10.8529 22.0474 11.1773 22.0092L11.3333 21.9998H16.6666ZM13.9999 5.99984C15.679 5.99984 17.3155 6.52814 18.6776 7.5099C20.0398 8.49166 21.0584 9.87712 21.5894 11.47C22.1204 13.0629 22.1367 14.7825 21.6361 16.3852C21.1354 17.9879 20.1432 19.3924 18.7999 20.3998C18.6162 20.5379 18.3998 20.6261 18.1719 20.6558L17.9999 20.6665H9.99995C9.71145 20.6665 9.43074 20.5729 9.19995 20.3998C7.8567 19.3924 6.86448 17.9879 6.36384 16.3852C5.8632 14.7825 5.87952 13.0629 6.41048 11.47C6.94145 9.87712 7.96014 8.49166 9.32227 7.5099C10.6844 6.52814 12.3209 5.99984 13.9999 5.99984Z" fill="white"/>
</svg>
