<svg width="32" height="32" viewBox="0 0 32 32" fill="none" xmlns="http://www.w3.org/2000/svg">
<rect width="32" height="32" rx="12" fill="#00E0FF"/>
<path d="M16.0026 19.92C14.9338 19.92 13.9087 19.5071 13.153 18.7719C12.3972 18.0368 11.9726 17.0397 11.9726 16C11.9726 14.9604 12.3972 13.9633 13.153 13.2282C13.9087 12.493 14.9338 12.08 16.0026 12.08C17.0714 12.08 18.0964 12.493 18.8522 13.2282C19.608 13.9633 20.0326 14.9604 20.0326 16C20.0326 17.0397 19.608 18.0368 18.8522 18.7719C18.0964 19.5071 17.0714 19.92 16.0026 19.92ZM24.5576 17.0864C24.6037 16.7281 24.6382 16.3696 24.6382 16C24.6382 15.6305 24.6037 15.2608 24.5576 14.88L26.9871 13.0545C27.2059 12.8864 27.2635 12.584 27.1253 12.3376L24.8225 8.46245C24.6843 8.21605 24.3734 8.11525 24.1201 8.21605L21.2531 9.33605C20.6543 8.89925 20.0326 8.51845 19.3072 8.23845L18.8811 5.27045C18.8578 5.13853 18.7871 5.01893 18.6817 4.93283C18.5764 4.84673 18.443 4.79969 18.3054 4.80005H13.6998C13.4119 4.80005 13.1701 5.00165 13.124 5.27045L12.698 8.23845C11.9726 8.51845 11.3509 8.89925 10.7521 9.33605L7.88508 8.21605C7.63177 8.11525 7.32089 8.21605 7.18272 8.46245L4.87988 12.3376C4.73019 12.584 4.79928 12.8864 5.01805 13.0545L7.44754 14.88C7.40149 15.2608 7.36694 15.6305 7.36694 16C7.36694 16.3696 7.40149 16.7281 7.44754 17.0864L5.01805 18.9457C4.79928 19.1136 4.73019 19.416 4.87988 19.6624L7.18272 23.5376C7.32089 23.784 7.63177 23.8736 7.88508 23.784L10.7521 22.6528C11.3509 23.1008 11.9726 23.4816 12.698 23.7617L13.124 26.7296C13.1701 26.9984 13.4119 27.2 13.6998 27.2H18.3054C18.5933 27.2 18.8351 26.9984 18.8811 26.7296L19.3072 23.7617C20.0326 23.4704 20.6543 23.1008 21.2531 22.6528L24.1201 23.784C24.3734 23.8736 24.6843 23.784 24.8225 23.5376L27.1253 19.6624C27.2635 19.416 27.2059 19.1136 26.9871 18.9457L24.5576 17.0864Z" fill="white"/>
</svg>
