<svg width="30" height="30" viewBox="0 0 30 30" fill="none" xmlns="http://www.w3.org/2000/svg">
<rect width="30" height="30" rx="12" fill="#00E0FF"/>
<path d="M16.5481 5.91174C15.8797 4.69609 14.1203 4.69609 13.4508 5.91174C12.5704 7.51249 11.8447 9.19364 11.2835 10.9323C11.257 11.0004 11.2104 11.0587 11.15 11.0996C11.0895 11.1404 11.0181 11.1619 10.9451 11.1611C9.44105 11.2002 7.94187 11.3497 6.45966 11.6084C5.0889 11.8474 4.48503 13.4929 5.52668 14.5116C6.6461 15.608 7.84255 16.6228 9.10686 17.5482C9.15716 17.5821 9.19513 17.6314 9.21509 17.6888C9.23505 17.7461 9.23592 17.8083 9.21759 17.8662C8.65519 19.5569 8.25356 21.297 8.01804 23.0632C7.82324 24.5241 9.3683 25.4207 10.575 24.8011C12.04 24.0498 13.4407 23.1793 14.7632 22.1984C14.8324 22.1494 14.9152 22.1231 15 22.1231C15.0848 22.1231 15.1676 22.1494 15.2368 22.1984C16.5585 23.1805 17.9593 24.051 19.425 24.8011C20.6317 25.4207 22.1778 24.5241 21.983 23.0632C21.7471 21.2973 21.3451 19.5576 20.7824 17.8672C20.7643 17.8091 20.7655 17.7467 20.7858 17.6894C20.8061 17.632 20.8445 17.5829 20.8952 17.5492C22.1588 16.6237 23.3546 15.609 24.4733 14.5126C25.515 13.4929 24.9111 11.8474 23.5403 11.6084C22.0578 11.3497 20.5583 11.2002 19.0538 11.1611C18.9811 11.1617 18.9098 11.1401 18.8496 11.0993C18.7893 11.0584 18.7429 11.0002 18.7165 10.9323C18.1571 9.19298 17.4302 7.51166 16.5481 5.91174Z" fill="white"/>
</svg>
