<svg width="18" height="36" viewBox="0 0 18 36" fill="none" xmlns="http://www.w3.org/2000/svg">
<path d="M9.94717 23.3722C9.45758 23.3705 8.96877 23.3329 8.48467 23.2598C6.26655 22.9316 4.58842 22.0176 3.49717 20.541C2.1228 18.6857 1.71592 16.0288 2.26155 12.4176C2.71061 9.42412 3.75498 6.40819 5.12561 4.14412C7.31373 0.528187 9.59373 -0.0990002 11.1256 0.0116248C12.8994 0.141 14.4715 1.00256 15.6734 2.50537C17.7256 5.07131 18.4531 9.16162 17.7228 14.0216C17.2287 17.3029 16.3915 19.5482 15.0875 21.0819C13.7834 22.6157 12.0669 23.3722 9.94717 23.3722ZM6.27498 36.0032C5.90743 36.0031 5.54073 35.9677 5.17999 35.8972C3.53374 35.5747 2.10124 34.5144 1.14874 32.9104C0.260923 31.4197 -0.132829 29.5888 0.039671 27.7541C0.189671 26.1604 0.695921 25.0804 1.5978 24.4419C2.94123 23.4885 4.56873 23.8897 6.14186 24.2788C6.56186 24.3819 6.99499 24.4888 7.41874 24.5704L8.00842 24.6801C9.84873 25.0185 11.5869 25.3363 12.5553 26.7585C13.1515 27.6332 13.3119 28.7273 13.0447 30.0998C12.6633 32.0336 11.534 33.7387 9.90217 34.8444C8.76498 35.6076 7.50967 36.0032 6.27498 36.0032Z" fill="#AB0ABD"/>
</svg>
