<svg width="68" height="68" viewBox="0 0 68 68" fill="none" xmlns="http://www.w3.org/2000/svg">
<rect width="68" height="68" rx="12" fill="#AB0ABD"/>
<path fill-rule="evenodd" clip-rule="evenodd" d="M45.9989 15.0707C46.0013 14.7051 45.8684 14.3515 45.6258 14.078C45.3833 13.8044 45.0482 13.6301 44.6849 13.5887C37.5826 12.8031 30.4153 12.8031 23.3129 13.5887C22.9502 13.6301 22.6155 13.8039 22.373 14.0768C22.1305 14.3498 21.9973 14.7026 21.9989 15.0677V16.7687C19.5669 17.0827 17.1639 17.4887 14.7899 17.9867C14.2949 18.0911 13.8495 18.3592 13.5256 18.7479C13.2018 19.1365 13.0183 19.623 13.0049 20.1287L12.9989 20.5007C12.9986 24.004 14.36 27.3702 16.7957 29.8882C19.2314 32.4062 22.5506 33.8787 26.0519 33.9947C27.4705 35.2487 29.1657 36.1492 30.9989 36.6227V40.0007H27.9989C27.2033 40.0007 26.4402 40.3168 25.8776 40.8794C25.315 41.442 24.9989 42.205 24.9989 43.0007V49.0007H22.9979C20.7899 49.0007 18.9989 50.7917 18.9989 52.9997C18.9989 54.1037 19.8929 55.0007 20.9999 55.0007H46.9979C47.5286 55.0007 48.0376 54.7899 48.4128 54.4146C48.7881 54.0394 48.9989 53.5304 48.9989 52.9997C48.9989 50.7917 47.2079 49.0007 44.9999 49.0007H42.9989V43.0007C42.9989 42.205 42.6828 41.442 42.1202 40.8794C41.5576 40.3168 40.7946 40.0007 39.9989 40.0007H36.9989V36.6227C38.8321 36.1492 40.5273 35.2487 41.9459 33.9947C45.512 33.8771 48.8865 32.3526 51.3319 29.7543C53.7773 27.156 55.0946 23.6954 54.9959 20.1287C54.9824 19.6226 54.7985 19.1358 54.474 18.7471C54.1496 18.3584 53.7035 18.0905 53.2079 17.9867C50.8218 17.4864 48.417 17.08 45.9989 16.7687V15.0707ZM21.9989 21.3047C20.5289 21.5047 19.0709 21.7397 17.6249 22.0097C17.8645 23.4175 18.4356 24.7482 19.2911 25.8916C20.1466 27.0351 21.2619 27.9585 22.5449 28.5857C22.1824 27.4253 21.9983 26.2165 21.9989 25.0007V21.3047ZM45.9989 21.3047C47.4689 21.5047 48.9269 21.7397 50.3729 22.0097C50.1334 23.4175 49.5622 24.7482 48.7067 25.8916C47.8512 27.0351 46.7359 27.9585 45.4529 28.5857C45.8069 27.4547 45.9989 26.2487 45.9989 25.0007V21.3047Z" fill="white"/>
</svg>
