<svg width="479" height="200" viewBox="0 0 479 200" fill="none" xmlns="http://www.w3.org/2000/svg">
<path d="M285.016 -187.662C233.258 358.877 -622.77 96.7414 -585.123 -422.07" stroke="url(#paint0_linear_73_31)" stroke-width="2"/>
<path d="M289.374 -265.643C237.616 280.896 -618.413 18.7606 -580.765 -500.051" stroke="url(#paint1_linear_73_31)" stroke-width="2"/>
<path d="M313.367 -226.857C261.609 319.682 -594.42 57.5463 -556.772 -461.265" stroke="url(#paint2_linear_73_31)" stroke-width="2"/>
<path d="M366.021 -177.75C314.263 368.789 -541.766 106.654 -504.118 -412.158" stroke="url(#paint3_linear_73_31)" stroke-width="2"/>
<path d="M401.124 -145.011C349.366 401.528 -506.663 139.392 -469.015 -379.42" stroke="url(#paint4_linear_73_31)" stroke-width="2"/>
<path d="M453.016 -109.643C401.258 436.896 -454.77 174.761 -417.123 -344.051" stroke="url(#paint5_linear_73_31)" stroke-width="2"/>
<defs>
<linearGradient id="paint0_linear_73_31" x1="-167.509" y1="-280.057" x2="237.7" y2="-336.613" gradientUnits="userSpaceOnUse">
<stop stop-color="#AB0ABD"/>
<stop offset="1" stop-color="#00E0FF"/>
</linearGradient>
<linearGradient id="paint1_linear_73_31" x1="-163.152" y1="-358.037" x2="242.057" y2="-414.593" gradientUnits="userSpaceOnUse">
<stop stop-color="#AB0ABD"/>
<stop offset="1" stop-color="#00E0FF"/>
</linearGradient>
<linearGradient id="paint2_linear_73_31" x1="-139.159" y1="-319.252" x2="266.05" y2="-375.808" gradientUnits="userSpaceOnUse">
<stop stop-color="#AB0ABD"/>
<stop offset="1" stop-color="#00E0FF"/>
</linearGradient>
<linearGradient id="paint3_linear_73_31" x1="-86.5047" y1="-270.144" x2="318.704" y2="-326.7" gradientUnits="userSpaceOnUse">
<stop stop-color="#AB0ABD"/>
<stop offset="1" stop-color="#00E0FF"/>
</linearGradient>
<linearGradient id="paint4_linear_73_31" x1="-51.4019" y1="-237.406" x2="353.807" y2="-293.962" gradientUnits="userSpaceOnUse">
<stop stop-color="#AB0ABD"/>
<stop offset="1" stop-color="#00E0FF"/>
</linearGradient>
<linearGradient id="paint5_linear_73_31" x1="0.490688" y1="-202.037" x2="405.7" y2="-258.593" gradientUnits="userSpaceOnUse">
<stop stop-color="#AB0ABD"/>
<stop offset="1" stop-color="#00E0FF"/>
</linearGradient>
</defs>
</svg>
