<svg width="81" height="17" viewBox="0 0 81 17" fill="none" xmlns="http://www.w3.org/2000/svg">
<path d="M5.1875 10.3086C4.26562 10.3086 3.42578 10.082 2.66797 9.62891C1.91016 9.17578 1.30469 8.57031 0.851562 7.8125C0.398438 7.05469 0.171875 6.21094 0.171875 5.28125C0.171875 4.35938 0.398438 3.51953 0.851562 2.76172C1.30469 2.00391 1.91016 1.39844 2.66797 0.945312C3.42578 0.492187 4.26562 0.265625 5.1875 0.265625H14.9492V3.61719H5.1875C4.72656 3.61719 4.33203 3.78125 4.00391 4.10938C3.68359 4.42969 3.52344 4.82031 3.52344 5.28125C3.52344 5.75 3.68359 6.14844 4.00391 6.47656C4.33203 6.79688 4.72656 6.95703 5.1875 6.95703H10.4961C11.418 6.95703 12.2578 7.18359 13.0156 7.63672C13.7734 8.08984 14.3789 8.69922 14.832 9.46484C15.2852 10.2227 15.5117 11.0625 15.5117 11.9844C15.5117 12.9062 15.2852 13.7461 14.832 14.5039C14.3789 15.2617 13.7734 15.8672 13.0156 16.3203C12.2578 16.7734 11.418 17 10.4961 17H0.453125V13.6484H10.4961C10.957 13.6484 11.3477 13.4883 11.668 13.168C11.9961 12.8398 12.1602 12.4453 12.1602 11.9844C12.1602 11.5234 11.9961 11.1289 11.668 10.8008C11.3477 10.4727 10.957 10.3086 10.4961 10.3086H5.1875ZM21.2188 0.265625V17H17.8672V0.265625H21.2188ZM38.6211 6.40625C38.6211 7.44531 38.3359 8.37891 37.7656 9.20703C37.1953 10.0352 36.4492 10.6445 35.5273 11.0352L38.4219 17H34.707L32 11.4219H26.9141V17H23.5625V9.74609C23.5625 9.28516 23.7266 8.89062 24.0547 8.5625C24.3828 8.23438 24.7773 8.07031 25.2383 8.07031H33.6055C34.0664 8.07031 34.4609 7.91016 34.7891 7.58984C35.1172 7.26172 35.2812 6.86719 35.2812 6.40625V5.28125C35.2812 4.82031 35.1172 4.42969 34.7891 4.10938C34.4609 3.78125 34.0664 3.61719 33.6055 3.61719H23.5625V0.265625H33.6055C34.5273 0.265625 35.3672 0.492187 36.125 0.945312C36.8828 1.39844 37.4883 2.00391 37.9414 2.76172C38.3945 3.51953 38.6211 4.35938 38.6211 5.28125V6.40625ZM44.3281 0.265625V17H40.9766V0.265625H44.3281ZM53.3633 17C51.5742 17 49.9961 16.3477 48.6289 15.043C47.3242 13.6758 46.6719 12.0977 46.6719 10.3086V0.265625H50.0234V10.3086C50.0234 11.2305 50.3477 12.0195 50.9961 12.6758C51.6523 13.3242 52.4414 13.6484 53.3633 13.6484H55.6836C56.6055 13.6484 57.3906 13.3242 58.0391 12.6758C58.6953 12.0195 59.0234 11.2305 59.0234 10.3086V0.265625H62.375V10.3086C62.375 12.0977 61.7227 13.6758 60.418 15.043C59.0508 16.3477 57.4727 17 55.6836 17H53.3633ZM69.7344 10.3086C68.8125 10.3086 67.9727 10.082 67.2148 9.62891C66.457 9.17578 65.8516 8.57031 65.3984 7.8125C64.9453 7.05469 64.7188 6.21094 64.7188 5.28125C64.7188 4.35938 64.9453 3.51953 65.3984 2.76172C65.8516 2.00391 66.457 1.39844 67.2148 0.945312C67.9727 0.492187 68.8125 0.265625 69.7344 0.265625H79.4961V3.61719H69.7344C69.2734 3.61719 68.8789 3.78125 68.5508 4.10938C68.2305 4.42969 68.0703 4.82031 68.0703 5.28125C68.0703 5.75 68.2305 6.14844 68.5508 6.47656C68.8789 6.79688 69.2734 6.95703 69.7344 6.95703H75.043C75.9648 6.95703 76.8047 7.18359 77.5625 7.63672C78.3203 8.08984 78.9258 8.69922 79.3789 9.46484C79.832 10.2227 80.0586 11.0625 80.0586 11.9844C80.0586 12.9062 79.832 13.7461 79.3789 14.5039C78.9258 15.2617 78.3203 15.8672 77.5625 16.3203C76.8047 16.7734 75.9648 17 75.043 17H65V13.6484H75.043C75.5039 13.6484 75.8945 13.4883 76.2148 13.168C76.543 12.8398 76.707 12.4453 76.707 11.9844C76.707 11.5234 76.543 11.1289 76.2148 10.8008C75.8945 10.4727 75.5039 10.3086 75.043 10.3086H69.7344Z" fill="url(#paint0_linear_34_2984)"/>
<defs>
<linearGradient id="paint0_linear_34_2984" x1="65.809" y1="-6.99999" x2="10.1547" y2="24.288" gradientUnits="userSpaceOnUse">
<stop stop-color="#AB0ABD"/>
<stop offset="1" stop-color="#00E0FF"/>
</linearGradient>
</defs>
</svg>
