<svg width="32" height="32" viewBox="0 0 32 32" fill="none" xmlns="http://www.w3.org/2000/svg">
<rect width="32" height="32" rx="12" fill="#00E0FF"/>
<path d="M26.6667 17.4154V22.1754C26.6667 23.0129 26.3296 23.8161 25.7294 24.4083C25.1293 25.0005 24.3154 25.3333 23.4667 25.3333H8.53337C7.68468 25.3333 6.87075 25.0005 6.27063 24.4083C5.67052 23.8161 5.33337 23.0129 5.33337 22.1754V17.4154L5.92324 17.7069C9.04956 19.2609 12.5014 20.0701 16.0019 20.0697C19.5024 20.0694 22.9541 19.2594 26.08 17.7048L26.6667 17.4154ZM18.1334 5.33325C18.9821 5.33325 19.796 5.66596 20.3961 6.25818C20.9962 6.8504 21.3334 7.65362 21.3334 8.49115V9.54378H23.4667C24.3154 9.54378 25.1293 9.87648 25.7294 10.4687C26.3296 11.0609 26.6667 11.8641 26.6667 12.7017V15.0617L25.1232 15.8238C22.3617 17.1976 19.3181 17.9295 16.2257 17.9634C13.1333 17.9973 10.074 17.3324 7.28217 16.0196L6.59204 15.6827L5.33337 15.0617V12.7017C5.33337 11.8641 5.67052 11.0609 6.27063 10.4687C6.87075 9.87648 7.68468 9.54378 8.53337 9.54378H10.6667V8.49115C10.6667 7.65362 11.0038 6.8504 11.604 6.25818C12.2041 5.66596 13.018 5.33325 13.8667 5.33325H18.1334ZM16 13.7543C15.7171 13.7543 15.4458 13.8652 15.2458 14.0626C15.0458 14.26 14.9334 14.5278 14.9334 14.8069C14.9327 14.9452 14.9596 15.0822 15.0125 15.2102C15.0655 15.3381 15.1435 15.4546 15.242 15.5528C15.3406 15.651 15.4578 15.7292 15.5869 15.7827C15.7161 15.8362 15.8546 15.8641 15.9947 15.8648C16.1348 15.8655 16.2736 15.839 16.4033 15.7867C16.533 15.7345 16.651 15.6575 16.7505 15.5602C16.8501 15.463 16.9292 15.3473 16.9835 15.2199C17.0377 15.0924 17.066 14.9557 17.0667 14.8175C17.0667 14.2259 16.5888 13.7543 16 13.7543ZM18.1334 7.43852H13.8667C13.5838 7.43852 13.3125 7.54942 13.1125 7.74682C12.9124 7.94423 12.8 8.21197 12.8 8.49115V9.54378H19.2V8.49115C19.2 8.21197 19.0877 7.94423 18.8876 7.74682C18.6876 7.54942 18.4163 7.43852 18.1334 7.43852Z" fill="white"/>
</svg>
