<svg width="68" height="68" viewBox="0 0 68 68" fill="none" xmlns="http://www.w3.org/2000/svg">
<rect width="68" height="68" rx="12" fill="#AB0ABD"/>
<path d="M34 12.186C45.046 12.186 54 21.14 54 32.186C54 43.232 45.046 52.186 34 52.186C22.954 52.186 14 43.232 14 32.186C14 21.14 22.954 12.186 34 12.186ZM34 20.186C33.4696 20.186 32.9609 20.3967 32.5858 20.7718C32.2107 21.1469 32 21.6556 32 22.186V32.186C32.0001 32.7164 32.2109 33.225 32.586 33.6L38.586 39.6C38.9632 39.9644 39.4684 40.1659 39.9928 40.1614C40.5172 40.1568 41.0188 39.9465 41.3896 39.5757C41.7605 39.2049 41.9708 38.7032 41.9753 38.1788C41.9799 37.6544 41.7783 37.1492 41.414 36.772L36 31.358V22.186C36 21.6556 35.7893 21.1469 35.4142 20.7718C35.0391 20.3967 34.5304 20.186 34 20.186Z" fill="white"/>
</svg>
