<svg width="48" height="48" viewBox="0 0 48 48" fill="none" xmlns="http://www.w3.org/2000/svg">
<path d="M12.5465 33.8691C10.4269 33.8691 8.7028 33.1031 7.40998 31.5825C6.11717 30.0619 5.26873 27.8053 4.77467 24.5222C4.04717 19.6838 4.76905 15.6056 6.80717 13.0397C8.00717 11.5284 9.58217 10.6547 11.3615 10.5141C12.885 10.3922 15.1622 11.01 17.3615 14.6391C18.7387 16.9116 19.7859 19.9303 20.235 22.9209C20.7778 26.5312 20.3737 29.1891 18.9994 31.0444C17.9081 32.5181 16.23 33.4313 14.0109 33.7631C13.5261 33.8343 13.0366 33.8697 12.5465 33.8691ZM16.2187 46.5C14.9803 46.5 13.725 46.1034 12.5944 45.3413C10.9629 44.2356 9.83365 42.5309 9.45186 40.5975C9.18467 39.2231 9.34498 38.1309 9.94123 37.2562C10.9097 35.8359 12.6478 35.5163 14.4872 35.1769C14.6812 35.1413 14.8781 35.1056 15.0778 35.0672C15.5015 34.9866 15.9347 34.8797 16.3547 34.7756C17.9278 34.3875 19.5553 33.9853 20.8987 34.9397C21.7978 35.5772 22.305 36.6609 22.4569 38.2509C22.6294 40.0856 22.2356 41.9166 21.3478 43.4072C20.3925 45.0113 18.96 46.0716 17.3165 46.3941C16.9549 46.4647 16.5872 46.5001 16.2187 46.5ZM35.4534 24.8691C34.9638 24.8673 34.475 24.8297 33.9909 24.7566C31.7728 24.4284 30.0947 23.5144 29.0034 22.0378C27.629 20.1825 27.2222 17.5256 27.7678 13.9144C28.2169 10.9209 29.2612 7.905 30.6319 5.64094C32.82 2.025 35.1 1.39781 36.6319 1.50844C38.4056 1.63781 39.9778 2.49937 41.1797 4.00219C43.2319 6.56812 43.9594 10.6584 43.229 15.5184C42.735 18.7997 41.8978 21.045 40.5937 22.5787C39.2897 24.1125 37.5731 24.8691 35.4534 24.8691ZM31.7812 37.5C31.4137 37.5 31.047 37.4645 30.6862 37.3941C29.04 37.0716 27.6075 36.0113 26.655 34.4072C25.7672 32.9166 25.3734 31.0856 25.5459 29.2509C25.6959 27.6572 26.2022 26.5772 27.104 25.9387C28.4475 24.9853 30.075 25.3866 31.6481 25.7756C32.0681 25.8787 32.5012 25.9856 32.925 26.0672L33.5147 26.1769C35.355 26.5153 37.0931 26.8331 38.0615 28.2553C38.6578 29.13 38.8181 30.2241 38.5509 31.5966C38.1695 33.5304 37.0402 35.2356 35.4084 36.3413C34.2712 37.1044 33.0159 37.5 31.7812 37.5Z" fill="#AB0ABD"/>
</svg>
